# xmcd CD database file
#
# Track frame offsets:
#	150
#	15141
#	30169
#	47685
#	76072
#	93649
#	126612
#	146299
#	167665
#	185969
#	210826
#	232591
#	245671
#	262966
#	295614
#	306832
#	320372
#
# Disc length: 4491 seconds
#
# Revision: 0
# Processed by: cddbd v1.5.2PL0 Copyright (c) Steve Scherf et al.
# Submitted via: CDex 1.70beta2
#
DISCID=d3118911
DTITLE=Various Artist - 發燒專門店4
DYEAR=1900
DGENRE=New Age
TTITLE0=秘密 選自班得瑞樂團《琉璃湖畔》
TTITLE1=卡門口紅 選自川井郁子《紅色小提琴》
TTITLE2=情人眼中 選自凱文科恩《雲淡風輕》
TTITLE3=天慾 選自王曉南《天慾》
TTITLE4=石屋 選自依莉莎白《秋天的故事》
TTITLE5=沙河之歌 選自雷恩克里菲《沙河之歌》
TTITLE6=就像是春天 選自《爵士女伶3》
TTITLE7=序曲‧記憶中的海岸 選自郭虔哲《爆米香的滋味》
TTITLE8=天使之聲 選自丹尼瑞特《情人》
TTITLE9=思鄉 選自《竹吟》
TTITLE10=木橋上 選自保羅麥可利斯《綠色森林》
TTITLE11=我應該哭的 選自《愛人的異想世界》
TTITLE12=山林迷霧 選自強尼斯林斯泰德《美麗世界》
TTITLE13=秋葉 選自《慾望城市》
TTITLE14=家園 選自雷恩寇伯《東方戀》
TTITLE15=心靈渴望 選自約翰安鐸尼《星光滿天》
TTITLE16=westay動物世界 <發燒天碟II>
EXTD=
EXTT0=
EXTT1=
EXTT2=
EXTT3=
EXTT4=
EXTT5=
EXTT6=
EXTT7=
EXTT8=
EXTT9=
EXTT10=
EXTT11=
EXTT12=
EXTT13=
EXTT14=
EXTT15=
EXTT16=
PLAYORDER=
